<svg width="123" height="37" viewBox="0 0 123 37" fill="none" xmlns="http://www.w3.org/2000/svg">
<path d="M27.2233 5.28613C25.4794 8.57823 23.8152 17.0309 31.1097 24.5049C33.7505 21.628 36.6703 13.7566 27.2233 5.28613Z" fill="black"/>
<path d="M33.0887 32.1922C31.9257 28.3687 33.9544 18.959 50.8558 8.53833C49.6067 16.7038 44.2012 32.1922 33.0887 32.1922Z" fill="black"/>
<path d="M29.1523 33.2045C10.5296 35.2909 -0.373246 14.6061 0.252769 3.32202C2.03987 3.62166 11.6194 7.32961 21.1609 16.7574C30.233 27.6069 32.9387 32.7804 29.1523 33.2045Z" fill="black"/>
<path d="M59.0789 31.5251L66.2069 15.2531H66.5669L73.6949 31.5251H71.0789L69.2789 27.2051H62.1509L60.3749 31.5251H59.0789ZM62.5109 26.2931H68.8949L65.7269 18.5171L62.5109 26.2931ZM77.9772 23.6531V31.5251H75.6492V15.6371H77.9772V22.7411H85.2492V15.6371H87.5772V31.5251H85.2492V23.6531H77.9772ZM91.4478 31.5251V15.6371H93.7998V30.2291C94.7758 30.5171 95.5598 30.6611 96.1518 30.6611L100.496 29.9171L100.208 31.5251H91.4478ZM104.908 15.6371V31.5251H102.7V15.6371H104.908ZM106.875 31.5251L114.003 15.2531H114.363L121.491 31.5251H118.875L117.075 27.2051H109.947L108.171 31.5251H106.875ZM110.307 26.2931H116.691L113.523 18.5171L110.307 26.2931Z" fill="black"/>
</svg>
